<svg width="20" height="20" viewBox="0 0 20 20" fill="none" xmlns="http://www.w3.org/2000/svg">
<g id="Icon ">
<path id="Vector" d="M9.9987 4.99999V3.33333M9.9987 4.99999C9.55667 4.99999 9.13275 5.17559 8.82019 5.48815C8.50763 5.80071 8.33203 6.22463 8.33203 6.66666C8.33203 7.10869 8.50763 7.53261 8.82019 7.84517C9.13275 8.15773 9.55667 8.33333 9.9987 8.33333M9.9987 4.99999C10.4407 4.99999 10.8646 5.17559 11.1772 5.48815C11.4898 5.80071 11.6654 6.22463 11.6654 6.66666C11.6654 7.10869 11.4898 7.53261 11.1772 7.84517C10.8646 8.15773 10.4407 8.33333 9.9987 8.33333M9.9987 8.33333V16.6667M4.9987 15C5.44073 15 5.86465 14.8244 6.17721 14.5118C6.48977 14.1993 6.66536 13.7754 6.66536 13.3333C6.66536 12.8913 6.48977 12.4674 6.17721 12.1548C5.86465 11.8423 5.44073 11.6667 4.9987 11.6667M4.9987 15C4.55667 15 4.13275 14.8244 3.82019 14.5118C3.50763 14.1993 3.33203 13.7754 3.33203 13.3333C3.33203 12.8913 3.50763 12.4674 3.82019 12.1548C4.13275 11.8423 4.55667 11.6667 4.9987 11.6667M4.9987 15V16.6667M4.9987 11.6667V3.33333M14.9987 15C15.4407 15 15.8646 14.8244 16.1772 14.5118C16.4898 14.1993 16.6654 13.7754 16.6654 13.3333C16.6654 12.8913 16.4898 12.4674 16.1772 12.1548C15.8646 11.8423 15.4407 11.6667 14.9987 11.6667M14.9987 15C14.5567 15 14.1327 14.8244 13.8202 14.5118C13.5076 14.1993 13.332 13.7754 13.332 13.3333C13.332 12.8913 13.5076 12.4674 13.8202 12.1548C14.1327 11.8423 14.5567 11.6667 14.9987 11.6667M14.9987 15V16.6667M14.9987 11.6667V3.33333" stroke="black" stroke-width="1.5" stroke-linecap="round" stroke-linejoin="round"/>
</g>
</svg>
