<svg width="21" height="20" viewBox="0 0 21 20" fill="none" xmlns="http://www.w3.org/2000/svg">
<g id="Icon old/flag/24/on">
<g id="Vector">
<path d="M3 4.16667V14.1667C3 13.7246 3.17559 13.3007 3.48816 12.9882C3.80072 12.6756 4.22464 12.5 4.66667 12.5H10.0833L10.9167 13.3333H18L15.5 8.33333L18 3.33333H10.9167L10.5 2.91667L10.0833 2.5H4.66667C4.22464 2.5 3.80072 2.67559 3.48816 2.98816C3.17559 3.30072 3 3.72464 3 4.16667Z" fill="#FCD34D"/>
<path d="M3 17.5V14.1667M3 14.1667V4.16667C3 3.72464 3.17559 3.30072 3.48816 2.98816C3.80072 2.67559 4.22464 2.5 4.66667 2.5H10.0833L10.9167 3.33333H18L15.5 8.33333L18 13.3333H10.9167L10.0833 12.5H4.66667C4.22464 12.5 3.80072 12.6756 3.48816 12.9882C3.17559 13.3007 3 13.7246 3 14.1667ZM10.5 2.91667V7.5" stroke="#F59E0B" stroke-width="1.5" stroke-linecap="round" stroke-linejoin="round"/>
</g>
</g>
</svg>
