<svg width="21" height="21" viewBox="0 0 21 21" fill="none" xmlns="http://www.w3.org/2000/svg">
<g id="Icon old/flag/24/on">
<g id="Vector">
<path d="M3 4.66667V14.6667C3 14.2246 3.17559 13.8007 3.48816 13.4882C3.80072 13.1756 4.22464 13 4.66667 13H10.0833L10.9167 13.8333H18L15.5 8.83333L18 3.83333H10.9167L10.5 3.41667L10.0833 3H4.66667C4.22464 3 3.80072 3.17559 3.48816 3.48816C3.17559 3.80072 3 4.22464 3 4.66667Z" fill="#8EA7EC"/>
<path d="M3 18V14.6667M3 14.6667V4.66667C3 4.22464 3.17559 3.80072 3.48816 3.48816C3.80072 3.17559 4.22464 3 4.66667 3H10.0833L10.9167 3.83333H18L15.5 8.83333L18 13.8333H10.9167L10.0833 13H4.66667C4.22464 13 3.80072 13.1756 3.48816 13.4882C3.17559 13.8007 3 14.2246 3 14.6667ZM10.5 3.41667V8" stroke="#3460DC" stroke-width="1.5" stroke-linecap="round" stroke-linejoin="round"/>
</g>
</g>
</svg>
