<svg width="20" height="20" viewBox="0 0 20 20" fill="none" xmlns="http://www.w3.org/2000/svg">
<g id="Icon ">
<path id="Vector" d="M9.99996 4.16683V4.17516M9.99996 10.0002V10.0085M9.99996 15.8335V15.8418M9.99996 5.00016C9.77895 5.00016 9.56698 4.91237 9.4107 4.75608C9.25442 4.5998 9.16663 4.38784 9.16663 4.16683C9.16663 3.94582 9.25442 3.73385 9.4107 3.57757C9.56698 3.42129 9.77895 3.3335 9.99996 3.3335C10.221 3.3335 10.4329 3.42129 10.5892 3.57757C10.7455 3.73385 10.8333 3.94582 10.8333 4.16683C10.8333 4.38784 10.7455 4.5998 10.5892 4.75608C10.4329 4.91237 10.221 5.00016 9.99996 5.00016ZM9.99996 10.8335C9.77895 10.8335 9.56698 10.7457 9.4107 10.5894C9.25442 10.4331 9.16663 10.2212 9.16663 10.0002C9.16663 9.77915 9.25442 9.56719 9.4107 9.41091C9.56698 9.25463 9.77895 9.16683 9.99996 9.16683C10.221 9.16683 10.4329 9.25463 10.5892 9.41091C10.7455 9.56719 10.8333 9.77915 10.8333 10.0002C10.8333 10.2212 10.7455 10.4331 10.5892 10.5894C10.4329 10.7457 10.221 10.8335 9.99996 10.8335ZM9.99996 16.6668C9.77895 16.6668 9.56698 16.579 9.4107 16.4228C9.25442 16.2665 9.16663 16.0545 9.16663 15.8335C9.16663 15.6125 9.25442 15.4005 9.4107 15.2442C9.56698 15.088 9.77895 15.0002 9.99996 15.0002C10.221 15.0002 10.4329 15.088 10.5892 15.2442C10.7455 15.4005 10.8333 15.6125 10.8333 15.8335C10.8333 16.0545 10.7455 16.2665 10.5892 16.4228C10.4329 16.579 10.221 16.6668 9.99996 16.6668Z" stroke="#838799" stroke-width="1.5" stroke-linecap="round" stroke-linejoin="round"/>
</g>
</svg>
