<svg width="25" height="25" viewBox="0 0 25 25" fill="none" xmlns="http://www.w3.org/2000/svg">
<g id="Icon Left">
<path id="Vector" d="M19.5 11.5H5.5M19.5 11.5C20.0304 11.5 20.5391 11.7107 20.9142 12.0858C21.2893 12.4609 21.5 12.9696 21.5 13.5V19.5C21.5 20.0304 21.2893 20.5391 20.9142 20.9142C20.5391 21.2893 20.0304 21.5 19.5 21.5H5.5C4.96957 21.5 4.46086 21.2893 4.08579 20.9142C3.71071 20.5391 3.5 20.0304 3.5 19.5V13.5C3.5 12.9696 3.71071 12.4609 4.08579 12.0858C4.46086 11.7107 4.96957 11.5 5.5 11.5M19.5 11.5V9.5C19.5 8.96957 19.2893 8.46086 18.9142 8.08579C18.5391 7.71071 18.0304 7.5 17.5 7.5M5.5 11.5V9.5C5.5 8.96957 5.71071 8.46086 6.08579 8.08579C6.46086 7.71071 6.96957 7.5 7.5 7.5M17.5 7.5V5.5C17.5 4.96957 17.2893 4.46086 16.9142 4.08579C16.5391 3.71071 16.0304 3.5 15.5 3.5H9.5C8.96957 3.5 8.46086 3.71071 8.08579 4.08579C7.71071 4.46086 7.5 4.96957 7.5 5.5V7.5M17.5 7.5H7.5" stroke="#6B6F80" stroke-width="1.5" stroke-linecap="round" stroke-linejoin="round"/>
</g>
</svg>
